<?xml version="1.0" encoding="utf-8"?>
<!-- Generator: Adobe Illustrator 22.1.0, SVG Export Plug-In . SVG Version: 6.00 Build 0)  -->
<svg version="1.1" id="图层_1" xmlns="http://www.w3.org/2000/svg" xmlns:xlink="http://www.w3.org/1999/xlink" x="0px" y="0px"
	 viewBox="0 0 200 200" style="enable-background:new 0 0 200 200;" xml:space="preserve">
<style type="text/css">
	.st0{fill:#747E8B;}
</style>
<path class="st0" d="M100.2,197.8c-53.8,0-97.5-43.7-97.5-97.5S46.3,2.8,100.2,2.8s97.5,43.7,97.5,97.5S154,197.8,100.2,197.8z
	 M100.2,8.2c-50.9,0-92.1,41.2-92.1,92.1s41.2,92.1,92.1,92.1s92.1-41.2,92.1-92.1S151,8.2,100.2,8.2z"/>
<g>
	<path class="st0" d="M158.1,136.8c-0.2-0.3-0.3-0.6-0.4-0.8c-2.2-4-6.5-8.9-12.7-14.7l-0.1-0.1l-0.1-0.1l-0.1-0.1h-0.1
		c-2.8-2.7-4.6-4.5-5.4-5.5c-1.4-1.8-1.7-3.6-0.9-5.4c0.5-1.4,2.5-4.3,6-8.7c1.8-2.4,3.3-4.2,4.3-5.7c7.7-10.2,11-16.7,10-19.6
		l-0.4-0.7c-0.3-0.4-1-0.8-2.1-1.1c-1.1-0.3-2.5-0.4-4.3-0.2l-19.2,0.1c-0.3-0.1-0.8-0.1-1.3,0c-0.6,0.1-0.9,0.2-0.9,0.2l-0.3,0.2
		l-0.3,0.2c-0.2,0.1-0.5,0.4-0.7,0.7c-0.3,0.3-0.5,0.7-0.7,1.2c-2.1,5.4-4.5,10.4-7.1,15c-1.6,2.8-3.2,5.1-4.5,7.2
		c-1.4,2-2.5,3.5-3.5,4.5c-0.9,1-1.8,1.7-2.5,2.3c-0.8,0.6-1.3,0.8-1.7,0.7c-0.4-0.1-0.8-0.2-1.1-0.3c-0.6-0.4-1.1-0.9-1.5-1.6
		c-0.4-0.7-0.6-1.6-0.8-2.6c-0.1-1-0.2-1.9-0.2-2.7c0-0.8,0-1.8,0-3.2c0-1.4,0.1-2.3,0.1-2.8c0-1.7,0-3.5,0.1-5.5
		c0.1-2,0.1-3.5,0.2-4.7c0-1.2,0.1-2.4,0.1-3.7c0-1.3-0.1-2.3-0.2-3c-0.2-0.7-0.4-1.4-0.7-2.1c-0.3-0.7-0.8-1.2-1.4-1.6
		c-0.6-0.4-1.3-0.7-2.2-0.9c-2.4-0.5-5.4-0.8-9-0.9c-8.3-0.1-13.6,0.4-15.9,1.6c-0.9,0.5-1.8,1.2-2.5,2c-0.8,1-0.9,1.5-0.3,1.6
		c2.7,0.4,4.6,1.4,5.7,2.9l0.4,0.8c0.3,0.6,0.6,1.6,0.9,3.1c0.3,1.5,0.5,3.1,0.6,4.9c0.2,3.2,0.2,6,0,8.3c-0.2,2.3-0.4,4.1-0.6,5.4
		c-0.2,1.3-0.5,2.3-0.9,3.1c-0.4,0.8-0.7,1.3-0.8,1.5c-0.1,0.2-0.2,0.3-0.3,0.3c-0.6,0.2-1.2,0.3-1.8,0.3c-0.6,0-1.4-0.3-2.3-0.9
		c-0.9-0.6-1.8-1.5-2.8-2.6c-1-1.1-2-2.6-3.2-4.6c-1.2-2-2.4-4.3-3.7-6.9l-1.1-1.9c-0.7-1.2-1.6-3.1-2.7-5.4
		c-1.2-2.4-2.2-4.7-3.1-6.9c-0.4-0.9-0.9-1.6-1.6-2.1L56,75.1c-0.2-0.2-0.6-0.4-1.1-0.6c-0.5-0.2-1-0.3-1.5-0.4l-18.3,0.1
		c-1.9,0-3.1,0.4-3.8,1.3L31,75.9c-0.1,0.2-0.2,0.6-0.2,1.1c0,0.5,0.1,1.1,0.4,1.8c2.7,6.3,5.6,12.3,8.7,18.1
		c3.1,5.8,5.9,10.5,8.2,14.1c2.3,3.6,4.7,6.9,7.1,10.1c2.4,3.2,4,5.2,4.8,6.1c0.8,0.9,1.4,1.6,1.8,2l1.7,1.6
		c1.1,1.1,2.6,2.3,4.7,3.8c2.1,1.5,4.4,3,6.9,4.4c2.5,1.4,5.4,2.6,8.8,3.5c3.3,0.9,6.6,1.3,9.7,1.1h7.7c1.6-0.1,2.7-0.6,3.5-1.5
		l0.3-0.3c0.2-0.3,0.3-0.7,0.5-1.2c0.2-0.6,0.2-1.2,0.2-1.8c0-1.9,0.1-3.6,0.4-5.2c0.3-1.5,0.7-2.7,1.1-3.5c0.4-0.8,0.9-1.4,1.4-2
		c0.5-0.5,0.9-0.9,1.1-1c0.2-0.1,0.4-0.2,0.5-0.2c1.1-0.4,2.3,0,3.8,1c1.4,1,2.8,2.3,4.1,3.9c1.3,1.5,2.8,3.3,4.6,5.2
		c1.8,1.9,3.3,3.3,4.7,4.3l1.3,0.8c0.9,0.5,2,1,3.5,1.5c1.4,0.4,2.7,0.6,3.7,0.3l17.1-0.3c1.7,0,3-0.3,3.9-0.8
		c0.9-0.6,1.5-1.2,1.7-1.8c0.2-0.7,0.2-1.4,0-2.3C158.4,137.7,158.3,137.2,158.1,136.8z"/>
</g>
</svg>
